<svg width="56" height="40" viewBox="0 0 56 40" fill="none" xmlns="http://www.w3.org/2000/svg">
<g id="money-bill-1-wave-solid 1">
<path id="Vector" d="M0 8.78904V32.9922C0 34.3984 0.981945 35.7265 2.625 36.2187C11.0833 38.7578 19.5417 37.0234 28 35.289C35.7583 33.7031 43.5167 32.1094 51.2653 33.8125C53.5014 34.3047 56 33.0703 56 31.2031V7.00779C56 5.60154 55.0181 4.27341 53.375 3.78123C44.9167 1.24216 36.4583 2.97654 28 4.71091C20.2417 6.29685 12.4833 7.88279 4.73472 6.17966C2.48889 5.68748 0 6.92185 0 8.78904ZM12.4444 32.5H6.22222V27.5C9.65417 27.5 12.4444 29.7422 12.4444 32.5ZM6.22222 17.5V12.5H12.4444C12.4444 15.2578 9.65417 17.5 6.22222 17.5ZM43.5556 27.5C43.5556 24.7422 46.3458 22.5 49.7778 22.5V27.5H43.5556ZM49.7778 12.5C46.3458 12.5 43.5556 10.2578 43.5556 7.49998H49.7778V12.5ZM37.3333 20C37.3333 24.8359 33.1528 28.75 28 28.75C22.8472 28.75 18.6667 24.8359 18.6667 20C18.6667 15.164 22.8472 11.25 28 11.25C33.1528 11.25 37.3333 15.164 37.3333 20ZM24.5 16.25C24.5 17.0078 25.1708 17.6328 26.0556 17.7812V21.5625H25.6667C24.5972 21.5625 23.7222 22.2656 23.7222 23.125C23.7222 23.9844 24.5972 24.6875 25.6667 24.6875H28H30.3333C31.4028 24.6875 32.2778 23.9844 32.2778 23.125C32.2778 22.2656 31.4028 21.5625 30.3333 21.5625H29.9444V16.25C29.9444 15.3906 29.0694 14.6875 28 14.6875H26.4444C25.375 14.6875 24.5 15.3906 24.5 16.25Z" fill="black"/>
</g>
</svg>
